<svg version="1" xmlns="http://www.w3.org/2000/svg" width="400" height="400" viewBox="0 0 300.000000 300.000000"><path d="M187.5 11.1c-36.5 4.9-67 22-77.8 43.5-3.6 7.1-5.7 16-5.7 23.8 0 15.3 10 33 22.1 39.2 5.8 2.9 6.8 5.3 4 9.7-2.6 4.3-8.7 8.7-26.3 19.5-8.1 5-16.9 10.8-19.5 12.9C72.6 169.3 60 190.3 56 207c-2.2 9.5-2.6 23.4-.9 30.8 1.7 7 10.6 25.1 15.1 30.4 5.4 6.4 16.7 13.9 25.8 16.8 6.8 2.3 9 2.5 23.5 2.4 25.6-.1 65.3-5.3 77.5-10.1 11.2-4.4 23.3-11.5 29.7-17.5 3.4-3.2 7-5.8 7.9-5.8 1.4 0 1.6-.7 1.1-3.6-.7-4-6.4-14.3-8.5-15.1-.7-.3-3.8.8-7 2.5-8.1 4.3-18 7-30.2 8.2-5.8.6-21.5 2.4-35 4.1-20.8 2.6-26.8 3-40 2.7-21-.7-28.2-3.2-31.5-11.1-2.6-6.4-2-15.2 1.6-22.2 12.1-23.9 52.5-58.3 95.4-81.2 6.9-3.6 11.6-7 15-10.6 2.8-2.9 6.2-6.1 7.8-7.1 3.3-2.2 3.4-3 .4-6-3.3-3.3-10.1-4-23.9-2.6-9.3.9-14.2.9-27.7-.4-17.9-1.8-25.1-3.9-25.1-7.4 0-4.9 14.2-13 34.5-19.6 25.7-8.3 37.5-9.5 59-5.9 16.5 2.7 22.6 1.2 30.4-7.2 6.6-7.2 6.8-9.5 2-29.1-5.7-23.7-7.2-26.1-17.8-29.6-5.5-1.7-9.5-2.1-23.6-2.4-9.3-.1-20.1.2-24 .7z"/></svg>