<?xml version="1.0" encoding="UTF-8" standalone="no"?>
<!-- Created with Inkscape (http://www.inkscape.org/) -->

<svg
   xmlns:dc="http://purl.org/dc/elements/1.1/"
   xmlns:cc="http://creativecommons.org/ns#"
   xmlns:rdf="http://www.w3.org/1999/02/22-rdf-syntax-ns#"
   xmlns:svg="http://www.w3.org/2000/svg"
   xmlns="http://www.w3.org/2000/svg"
   xmlns:sodipodi="http://sodipodi.sourceforge.net/DTD/sodipodi-0.dtd"
   xmlns:inkscape="http://www.inkscape.org/namespaces/inkscape"
   width="737.56622"
   height="133.36211"
   viewBox="0 0 737.56624 133.36211"
   id="svg2"
   version="1.1"
   inkscape:version="0.91 r13725"
   sodipodi:docname="logotip_studio-enisa_rust.svg"
   inkscape:export-filename="/media/enisa/Files/Documents/Skola_plesa/NOVI SAJT/logo/logotip_studio-enisa.svg.png"
   inkscape:export-xdpi="90"
   inkscape:export-ydpi="90">
  <defs
     id="defs4" />
  <sodipodi:namedview
     id="base"
     pagecolor="#ffffff"
     bordercolor="#666666"
     borderopacity="1.0"
     inkscape:pageopacity="0.0"
     inkscape:pageshadow="2"
     inkscape:zoom="0.71"
     inkscape:cx="181.79928"
     inkscape:cy="100.40308"
     inkscape:document-units="px"
     inkscape:current-layer="layer1"
     showgrid="true"
     inkscape:snap-text-baseline="true"
     units="px"
     fit-margin-top="0"
     fit-margin-left="0"
     fit-margin-right="0"
     fit-margin-bottom="0">
    <inkscape:grid
       type="xygrid"
       id="grid3378"
       originx="-146.22284"
       originy="-416.78003" />
  </sodipodi:namedview>
  <metadata
     id="metadata7">
    <rdf:RDF>
      <cc:Work
         rdf:about="">
        <dc:format>image/svg+xml</dc:format>
        <dc:type
           rdf:resource="http://purl.org/dc/dcmitype/StillImage" />
        <dc:title></dc:title>
      </cc:Work>
    </rdf:RDF>
  </metadata>
  <g
     inkscape:label="Layer 1"
     inkscape:groupmode="layer"
     id="layer1"
     transform="translate(-146.22284,-502.22007)">
    <flowRoot
       xml:space="preserve"
       id="flowRoot4180"
       style="font-style:normal;font-weight:normal;font-size:40px;line-height:125%;font-family:sans-serif;letter-spacing:0px;word-spacing:0px;fill:#000000;fill-opacity:1;stroke:none;stroke-width:1px;stroke-linecap:butt;stroke-linejoin:miter;stroke-opacity:1"><flowRegion
         id="flowRegion4182"><rect
           id="rect4184"
           width="920"
           height="520"
           x="40"
           y="104.09448" /></flowRegion><flowPara
         id="flowPara4186" /></flowRoot>    <flowRoot
       xml:space="preserve"
       id="flowRoot4188"
       style="font-style:normal;font-weight:normal;font-size:40px;line-height:125%;font-family:sans-serif;letter-spacing:0px;word-spacing:0px;fill:#800000;fill-opacity:0.99421967;stroke:none;stroke-width:1px;stroke-linecap:butt;stroke-linejoin:miter;stroke-opacity:1"
       transform="translate(-197.1831,306.85927)"
       inkscape:export-xdpi="90"
       inkscape:export-ydpi="90"><flowRegion
         id="flowRegion4190"><rect
           id="rect4192"
           width="920"
           height="480"
           x="80"
           y="144.09448"
           style="fill:#800000;fill-opacity:0.99421967" /></flowRegion><flowPara
         id="flowPara4194"
         style="font-style:normal;font-variant:normal;font-weight:normal;font-stretch:normal;font-size:180px;line-height:125%;font-family:Selima;-inkscape-font-specification:'Selima, Normal';text-align:center;writing-mode:lr-tb;text-anchor:middle;fill:#800000;fill-opacity:0.99421967">Studio</flowPara></flowRoot>    <flowRoot
       xml:space="preserve"
       id="flowRoot4227"
       style="font-style:normal;font-weight:normal;font-size:40px;line-height:125%;font-family:sans-serif;letter-spacing:0px;word-spacing:0px;fill:#000000;fill-opacity:1;stroke:none;stroke-width:1px;stroke-linecap:butt;stroke-linejoin:miter;stroke-opacity:1"><flowRegion
         id="flowRegion4229"><rect
           id="rect4231"
           width="429.57745"
           height="138.02817"
           x="552.11267"
           y="193.39026" /></flowRegion><flowPara
         id="flowPara4233" /></flowRoot>    <g
       style="font-style:normal;font-weight:normal;font-size:40px;line-height:125%;font-family:sans-serif;letter-spacing:0px;word-spacing:0px;fill:#800000;fill-opacity:1;stroke:none;stroke-width:1px;stroke-linecap:butt;stroke-linejoin:miter;stroke-opacity:1"
       id="text4235"
       inkscape:export-xdpi="90"
       inkscape:export-ydpi="90">
      <path
         d="m 580.88,547.56218 c 10.8,3.6 -9.72,11.88 -14.4,16.02 -5.04,4.14 -8.64,9.54 -10.8,16.02 -2.52,7.38 -2.34,14.58 1.62,21.24 0.36,0.72 1.08,1.62 1.44,2.88 2.7,3.96 6.48,6.84 10.98,8.46 3.6,1.26 7.56,1.62 11.52,1.26 0.9,-0.36 1.8,-0.54 2.7,-0.18 0.9,0.54 1.98,-0.54 2.88,-0.36 2.34,-0.36 4.5,-0.36 6.84,-0.72 2.16,0 4.32,-0.54 6.84,-0.9 1.98,-0.18 3.78,-0.36 5.76,-0.9 3.42,-0.9 7.2,-2.88 10.44,-4.68 2.16,-1.08 3.78,-2.7 5.4,-4.5 0.72,-0.54 1.44,-0.9 2.34,-1.08 -0.54,-2.52 -1.62,-4.5 -2.88,-6.12 -0.72,-1.44 -1.08,-1.44 -2.52,-0.36 -2.7,1.62 -5.94,2.7 -9,3.24 l -10.8,1.08 c -5.04,0.9 -10.44,1.26 -15.48,1.98 -3.96,0.18 -7.74,0.18 -11.7,-0.36 -1.98,-0.36 -3.96,-0.9 -5.58,-2.34 -1.62,-1.44 -1.8,-5.94 -1.26,-7.74 4.14,-12.78 29.34,-29.7 39.06,-34.2 1.44,-0.72 2.88,-1.62 3.96,-2.88 1.26,-1.62 2.52,-2.88 4.32,-3.78 l 0,-0.36 c -0.36,-1.44 -0.9,-1.98 -1.98,-2.34 -2.34,-0.54 -4.68,-0.72 -6.84,-0.18 -4.32,0.54 -8.64,0.36 -12.78,-0.18 -28.08,-1.62 21.06,-17.28 23.22,-12.6 2.16,0 4.32,0.18 6.66,0.72 3.42,0.72 6.48,-0.54 9.18,-3.42 1.62,-1.62 2.34,-3.6 1.98,-5.94 -0.36,-1.26 -0.72,-2.16 -0.9,-3.24 l -1.62,-6.84 c -0.54,-2.52 -1.62,-4.68 -3.6,-5.76 -1.98,-0.72 -4.14,-1.44 -6.3,-1.62 -8.46,-0.9 -16.92,0.18 -25.2,2.7 -5.22,1.8 -9.9,4.32 -14.22,8.28 -3.42,2.88 -5.4,6.66 -6.48,11.16 -1.26,5.4 0.36,10.08 3.06,14.4 1.26,1.62 2.52,3.06 4.14,4.14 z"
         style="font-style:normal;font-variant:normal;font-weight:normal;font-stretch:normal;font-size:180px;line-height:125%;font-family:Selima;-inkscape-font-specification:'Selima, Normal';text-align:start;writing-mode:lr-tb;text-anchor:start;fill:#800000;fill-opacity:1"
         id="path4264"
         inkscape:connector-curvature="0" />
      <path
         d="m 674.9975,566.82218 c 3.96,-4.14 3.24,4.5 2.52,8.28 0,2.34 -0.18,4.5 -0.36,6.84 0.18,10.26 3.96,16.56 11.7,19.08 3.06,1.08 12.6,0.72 15.12,-0.36 l 2.16,-0.72 c 0.9,-0.54 1.98,-0.9 2.7,-1.62 1.62,-1.44 8.64,-9.18 10.08,-10.8 1.62,-1.8 3.42,-5.58 5.04,-7.92 0.54,-0.9 0.9,-1.8 1.08,-2.7 0,-0.9 0.18,-1.62 0.72,-2.34 0.54,-1.26 0.36,0.18 0.36,-1.08 -0.18,-1.08 0.18,-1.8 0,-2.88 -0.18,-0.18 -0.18,-0.54 -0.18,-0.9 -0.72,0.72 -0.72,1.08 -1.08,1.62 -1.44,1.98 -1.44,3.24 -2.88,5.4 -0.72,0.9 -6.3,5.04 -6.84,5.76 -2.52,3.24 -10.08,9.18 -13.5,11.34 -1.08,0.36 -1.8,0.9 -2.7,1.26 -1.8,0.9 -7.74,2.16 -8.1,-2.16 -0.36,-3.24 0,-11.16 1.08,-14.94 0.9,-3.42 1.26,-5.4 1.98,-8.82 0.72,-2.7 0.36,-4.68 0,-7.38 0,-1.08 -0.18,-1.8 -0.72,-2.7 -0.72,-1.26 -1.62,-2.34 -3.24,-2.7 -2.16,-0.36 -4.32,-0.18 -6.66,-0.54 l -1.8,0 c -1.62,0.36 -2.88,1.08 -3.78,2.7 l -3.42,3.6 c -3.96,4.32 -5.94,5.58 -10.08,10.62 -3.42,3.96 -3.78,4.5 -7.38,7.92 -2.34,1.26 -3.96,-1.08 -1.62,-4.86 1.98,-2.88 1.26,-2.34 2.7,-5.4 3.24,-6.84 5.4,-13.5 5.58,-20.16 0.18,-1.98 0.18,-3.78 -0.72,-5.22 l -2.7,-3.6 c -0.18,-0.36 -0.72,-0.9 -0.9,-0.9 -1.98,-0.54 -3.6,-1.62 -4.86,-3.24 -0.36,-0.54 -1.26,-0.72 -2.16,-0.18 0,0.54 -0.18,0.72 -0.18,1.26 -0.36,1.62 -1.08,3.24 -1.98,4.86 -0.9,2.16 -2.16,4.32 -3.42,6.48 -1.98,3.42 -4.32,7.2 -6.3,10.98 -2.16,4.5 -4.14,9 -5.94,13.5 -1.62,3.24 -2.88,6.48 -4.14,9.9 -2.52,6.66 -3.96,13.32 -5.4,19.8 -0.72,3.78 0.9,6.66 3.6,7.56 1.08,0.18 2.34,0.18 3.6,0.54 1.98,0.18 3.96,0 5.94,0.54 0.54,0.18 1.98,0.18 2.88,-0.54 1.08,-0.54 1.8,-0.9 2.52,-0.9 0.9,0 1.44,-0.18 2.34,-1.08 1.44,-1.8 4.14,-13.32 5.94,-15.12 0.18,-0.54 0.72,-1.26 1.44,-1.8 0.9,-0.9 1.62,-2.16 2.52,-3.6 0.9,-1.62 1.8,-2.88 3.06,-4.14 1.98,-1.98 3.96,-4.14 5.58,-6.3 1.98,-2.88 5.04,-5.58 7.38,-8.28 1.08,-1.26 2.52,-2.52 3.42,-3.96 z"
         style="font-style:normal;font-variant:normal;font-weight:normal;font-stretch:normal;font-size:180px;line-height:125%;font-family:Selima;-inkscape-font-specification:'Selima, Normal';text-align:start;writing-mode:lr-tb;text-anchor:start;fill:#800000;fill-opacity:1"
         id="path4266"
         inkscape:connector-curvature="0" />
      <path
         d="m 731.75656,555.48218 c -0.54,1.08 -0.72,1.8 -0.54,2.52 0.36,1.26 -0.18,1.98 -0.72,3.06 0,0 -0.36,0.54 -0.36,0.9 -1.08,2.52 -4.32,6.48 -5.76,10.08 -2.16,3.6 1.62,-0.18 1.62,-0.18 -0.9,1.26 -1.08,2.34 -1.98,3.6 -0.18,0.18 -0.36,0.9 -0.54,0.9 -1.26,0.18 -0.9,1.08 -1.26,1.26 0,1.08 -0.36,1.98 -0.54,2.88 -0.72,1.44 -0.36,5.58 -0.9,7.74 0,0.9 0,2.16 0.36,3.24 0,2.34 0.9,4.86 1.8,7.2 1.62,1.8 3.42,3.24 5.22,3.96 2.7,1.08 5.04,3.6 7.56,2.7 7.92,3.06 20.16,-7.74 21.96,-10.08 6.12,-3.6 8.82,-13.5 12.6,-20.34 -2.52,-0.54 -0.54,-3.06 -1.44,-4.86 -0.54,0.9 -0.54,0.9 -0.54,1.08 -0.9,2.88 -2.88,5.04 -4.5,7.38 -8.64,9.18 -3.24,11.16 -18.18,16.56 -1.08,0.18 -1.98,0.54 -2.88,-0.18 -1.08,-0.36 -1.98,-1.08 -2.7,-1.44 -0.54,-0.72 -1.26,-1.44 -1.44,-2.7 -0.18,-1.62 0.54,-10.8 0.54,-12.6 0.18,-3.24 0.18,-2.52 1.62,-6.12 0.18,-0.36 0.54,-0.9 0.54,-1.44 0.36,-1.8 -2.88,5.04 -2.16,2.88 0.9,-1.62 1.62,-3.78 2.34,-5.4 l 0.9,-2.7 c 1.44,-2.88 2.7,-5.04 3.78,-7.38 0.54,-1.8 0.36,-3.06 -0.36,-3.96 -0.72,-0.72 -2.52,-1.62 -3.06,-2.34 -1.8,-1.08 -6.3,2.16 -8.28,2.52 -0.54,0.36 -0.9,0.54 -1.44,1.26 l -0.18,0.18 c -0.54,0.18 -0.72,0 -1.08,-0.18 z m 18.72,-20.88 c -0.72,-1.26 -1.62,-2.16 -2.88,-2.7 -0.72,-0.18 -1.62,-0.36 -2.34,-0.72 -0.18,-0.18 -0.36,0 -0.72,0.18 -0.36,0.18 -0.72,0.18 -0.72,-0.18 -0.18,-0.18 -0.54,-0.18 -0.9,0 -0.36,0 -0.72,0.36 -1.08,0.72 l -1.08,1.62 c -0.54,1.08 -1.44,1.98 -1.44,3.06 0,0.18 -0.54,0.54 -0.54,0.9 -0.54,0.9 -0.9,1.44 -1.26,2.34 -0.18,0.72 -0.54,1.26 -0.54,1.8 l -0.54,0.72 c 0.72,0.18 1.26,0.18 1.98,0.18 0.54,0 0.9,0 1.44,0.36 0.72,0.36 1.44,0.54 2.52,-0.18 0.36,-0.36 0.9,-0.72 1.26,-0.54 0.9,-0.18 2.34,-0.9 2.7,-1.44 l 1.8,-2.16 c 0.36,-0.36 0.36,-0.72 0.36,-0.9 0.18,-0.72 0.54,-1.08 0.9,-1.62 0.36,-0.36 0.54,-0.9 1.08,-1.44 z"
         style="font-style:normal;font-variant:normal;font-weight:normal;font-stretch:normal;font-size:180px;line-height:125%;font-family:Selima;-inkscape-font-specification:'Selima, Normal';text-align:start;writing-mode:lr-tb;text-anchor:start;fill:#800000;fill-opacity:1"
         id="path4268"
         inkscape:connector-curvature="0" />
      <path
         d="m 770.84187,635.04218 c 1.08,-0.18 2.34,-0.72 3.42001,-1.98 0,-0.18 0.17999,-0.18 0.36,-0.36 1.07999,-0.54 2.69999,-1.08 3.41999,-2.16 l 1.44,-1.8 c 1.44,-1.44 6.30001,-6.48 7.2,-8.46 0.54,-1.26 1.44001,-2.34 2.16,-3.42 l 0.54001,-0.36 c 0.36,-0.18 0.71999,-0.54 0.9,-0.9 0.36,-1.08 0,-3.06 0.72,-4.14 0,0 -0.18001,-0.18 0.17999,-0.72 -0.17999,-0.54 0.18001,-0.9 0,-1.44 1.08001,-4.32 1.08001,-3.6 0.36,-7.2 0,-4.86 5.4,-4.86 9,-7.56 l 1.98001,-1.62 c 1.98,-1.44 3.77999,-3.24 5.76,-4.32 l 0.72,-0.72 3.78,-3.24 2.34,-2.16 c 0.9,-1.08 1.43999,-2.52 2.33999,-3.6 0.72,-1.08 1.26,-2.16 1.62,-3.42 0,-0.54 0.36,-0.9 0.54001,-1.44 0.71999,-1.08 0.53999,-2.16 0.17999,-3.24 l -0.72,-1.8 -2.69999,3.06 c -1.08001,1.26 -2.16001,2.52 -3.42001,3.6 -1.8,1.62 -3.78,3.24 -5.76,4.68 -2.69999,2.16 -5.4,4.14 -8.1,6.12 -4.68,1.26 -10.44,6.12 -12.06,2.16 -0.72,-0.72 -0.72,-2.7 -1.62,-3.42 -1.98,-1.98 -3.96,-8.82 -6.29999,-10.8 -0.54001,-0.54 -1.44001,-1.44 -1.80001,-2.34 -0.53999,-1.44 -0.53999,-4.68 0.18001,-6.48 l 1.43999,-2.88 c 0.18001,-0.18 0.18001,-0.54 0.18001,-0.54 -0.18001,-0.9 0.53999,-1.44 0.71999,-1.98 0.36,-0.72 0.90001,-1.44 1.44001,-1.8 0.72,-0.18 0.89999,-0.72 1.25999,-1.44 0.72001,-1.44 1.08001,-3.24 1.44,-4.68 0.36,-1.08 0.36,-2.16 0.36,-3.24 -0.36,-0.36 -0.36,-0.9 -0.36,-1.44 -0.18,-2.34 -3.06,-9 -4.68,-9.72 -0.17999,-0.18 -0.36,-0.18 -0.36,-0.18 -1.07999,-1.08 -1.98,-1.62 -3.24,-2.16 -0.36,-0.36 -0.72,0 -1.26,0.72 -0.36,0.72 -0.53999,0.9 -1.07999,1.26 -0.36,0.18 -0.54001,0.18 -0.72,0.54 -0.72001,1.26 -1.80001,2.34 -2.52,3.78 l -1.62,3.24 c -0.54001,0.54 -0.72,1.08 -1.08001,1.62 -0.36,1.08 -0.72,1.62 -1.08,2.52 -0.54,0.9 -0.71999,2.16 -1.26,3.06 0.54001,0.9 0,1.98 -0.17999,2.52 -0.72001,1.08 -1.08001,2.16 -0.9,3.24 -0.36,0.72 -0.18001,1.08 -0.54001,1.44 0,3.24 3.42001,16.38 5.04001,18.72 0.17999,0.72 0.71999,1.26 0.9,1.98 1.79999,3.24 3.6,6.3 4.67999,10.44 2.16001,5.4 3.24,7.2 -3.6,13.5 -3.42,3.06 -6.47999,6.66 -9.35999,10.8 -1.44001,2.16 -2.52001,4.14 -3.06001,6.48 -0.36,0.9 -0.53999,2.16 -0.53999,2.88 0.36,1.98 0.53999,3.78 1.62,5.22 0.72,0.72 0.89999,1.8 1.26,2.88 0.72,1.44 1.43999,1.8 2.88,0.9 0.36,0 0.72,-0.18 0.89999,-0.54 0.54,0 0.9,-0.36 1.44001,-0.36 l -0.36,0.9 c 0.89999,0.36 0.89999,0.36 1.26,0.18 1.07999,-0.36 1.98,-0.54 2.88,-1.26 0.17999,-0.54 0.72,-0.54 1.07999,-0.9 0.18,0.36 0.18,0.36 0.54001,0.54 l 0,0.54 c 1.62,-1.08 1.62,-1.08 2.34,-1.08 -1.08,1.44 -2.16001,2.7 -3.24,4.32 l 0.71999,-0.54 z m -2.69999,-19.8 c 2.15999,-2.16 8.64,-10.44 8.64,-4.68 0,0.18 0,0.54 -0.18001,0.54 -0.71999,1.8 -0.54,3.6 -1.44,5.22 -0.53999,1.62 -1.25999,3.24 -2.15999,4.68 -0.18001,0.36 -0.36,0.9 -0.72,1.26 -1.08001,2.16 -2.34001,3.6 -3.96001,4.86 l -2.16,2.34 -2.15999,1.8 c -0.72,0.72 -1.44001,0.54 -1.98,0.18 l -2.16,-2.52 c -0.54001,-0.54 -0.72,-1.26 -0.36,-2.34 0.36,-0.9 0.36,-1.8 0.53999,-2.88 0.36001,-0.9 1.08001,-1.62 1.8,-2.34 0.72,-0.54 1.26,-1.26 1.80001,-2.34 0.53999,-1.26 1.62,-2.34 2.69999,-2.7 0.72,-0.18 1.26,-0.54 1.80001,-1.08 z"
         style="font-style:normal;font-variant:normal;font-weight:normal;font-stretch:normal;font-size:180px;line-height:125%;font-family:Selima;-inkscape-font-specification:'Selima, Normal';text-align:start;writing-mode:lr-tb;text-anchor:start;fill:#800000;fill-opacity:1"
         id="path4270"
         inkscape:connector-curvature="0" />
      <path
         d="m 880.18906,570.42218 c -2.34,2.34 -5.94,8.28 -8.28,10.62 l -2.88,2.52 -3.96,2.34 c -1.08,0.72 -2.34,1.26 -3.42,1.8 -1.26,0.54 -2.52,0.72 -3.78,0.9 -0.72,0 -1.26,-0.36 -1.62,-0.9 -0.72,-1.44 -1.26,-3.06 -1.62,-4.5 -0.18,-1.26 0,-2.52 0.54,-3.78 l 2.52,-5.04 c 0.18,-0.36 0.36,-0.54 0.36,-0.9 -0.18,-1.8 -0.36,-3.6 -1.62,-5.22 l -1.08,-1.08 c -1.08,-1.26 -2.34,-1.44 -3.96,-1.26 l -3.78,6.12 c -0.9,1.44 -1.98,2.7 -3.06,3.96 l -1.44,1.62 c -0.72,1.26 -1.62,2.16 -2.7,3.06 -2.16,1.62 -4.14,3.42 -5.94,5.22 l -0.72,0.54 c 0,-0.36 -0.18,-0.54 0,-0.72 0.36,-1.98 1.08,-3.96 2.16,-5.94 0.18,-0.36 0.36,-0.72 0.72,-1.08 l 1.8,-2.52 c 1.44,-1.98 2.7,-3.96 4.32,-5.76 l 2.16,-2.34 c 1.62,-2.34 3.96,-4.14 5.94,-6.12 l 0,-0.18 c 1.44,-1.08 2.88,-2.16 4.5,-2.88 1.62,-0.9 1.98,-1.98 1.62,-3.6 l -0.54,-1.44 c -0.72,-1.26 -1.98,-2.16 -3.06,-3.24 -0.18,-0.18 -0.54,-0.36 -0.9,-0.36 -0.9,0 -1.62,-0.9 -2.52,-0.9 0,0 -0.18,0 -0.36,-0.18 -0.36,-0.72 -1.08,-0.72 -1.98,-0.9 -0.36,0 -0.72,-0.18 -1.08,-0.36 -1.26,-0.36 -2.7,-0.36 -3.78,-0.9 l -0.54,0 c -1.26,0 -2.34,0.18 -3.42,0.36 -0.54,0 -1.26,0.18 -1.62,0.36 -2.7,1.62 -4.86,3.42 -6.84,5.58 -2.7,3.24 -5.58,6.66 -7.92,10.26 -0.18,0.18 -0.36,0.36 -0.36,0.54 -1.8,1.98 -3.06,4.32 -4.32,6.66 -1.26,2.52 -1.8,5.22 -1.44,8.1 0.54,5.58 3.42,9.54 8.64,11.7 0.9,0.36 1.8,0.72 2.7,1.26 2.34,1.26 4.86,1.26 7.38,0.54 1.44,-0.54 2.88,-0.72 3.96,-2.16 0,0 0.18,-0.18 0.36,-0.18 l 1.98,-1.26 c 1.08,-0.9 2.34,-1.62 3.78,-2.34 1.08,1.44 2.7,2.34 4.32,3.06 l 0.9,0.54 c 1.8,1.44 3.96,1.8 6.12,2.52 l 1.62,0 c 1.44,-0.36 2.88,-0.36 4.14,-0.9 1.44,-0.54 2.88,-0.54 4.5,-0.9 1.26,-0.36 2.34,-0.9 3.42,-1.8 1.08,-1.08 2.52,-2.16 3.6,-3.42 0.18,-0.36 0.54,-0.54 0.9,-0.72 0.9,-0.54 1.62,-1.08 2.16,-2.16 0.18,-0.54 0.72,-0.9 1.08,-1.26 l 1.98,-2.34 c 0.36,-0.18 0.54,-0.72 1.08,-0.9 0.9,-0.72 2.7,-5.04 2.88,-6.3 -0.9,-0.9 -1.8,-1.62 -3.06,-1.8 l -0.54,0.36 z"
         style="font-style:normal;font-variant:normal;font-weight:normal;font-stretch:normal;font-size:180px;line-height:125%;font-family:Selima;-inkscape-font-specification:'Selima, Normal';text-align:start;writing-mode:lr-tb;text-anchor:start;fill:#800000;fill-opacity:1"
         id="path4272"
         inkscape:connector-curvature="0" />
    </g>
  </g>
</svg>
