<?xml version="1.0" encoding="UTF-8" standalone="no"?>
<!-- Created with Inkscape (http://www.inkscape.org/) -->

<svg
   xmlns:dc="http://purl.org/dc/elements/1.1/"
   xmlns:cc="http://creativecommons.org/ns#"
   xmlns:rdf="http://www.w3.org/1999/02/22-rdf-syntax-ns#"
   xmlns:svg="http://www.w3.org/2000/svg"
   xmlns="http://www.w3.org/2000/svg"
   xmlns:sodipodi="http://sodipodi.sourceforge.net/DTD/sodipodi-0.dtd"
   xmlns:inkscape="http://www.inkscape.org/namespaces/inkscape"
   width="361.50986"
   height="68.573372"
   viewBox="0 0 361.50987 68.573374"
   id="svg2"
   version="1.1"
   inkscape:version="0.91 r13725"
   sodipodi:docname="studio-enisa-logo.svg"
   inkscape:export-filename="/media/enisa/Files/Documents/Skola_plesa/NOVI SAJT/logo/logotip_studio-enisa.svg.png"
   inkscape:export-xdpi="90"
   inkscape:export-ydpi="90">
  <defs
     id="defs4" />
  <sodipodi:namedview
     id="base"
     pagecolor="#ffffff"
     bordercolor="#666666"
     borderopacity="1.0"
     inkscape:pageopacity="0.0"
     inkscape:pageshadow="2"
     inkscape:zoom="0.71"
     inkscape:cx="-48.482408"
     inkscape:cy="-15.089881"
     inkscape:document-units="px"
     inkscape:current-layer="layer1"
     showgrid="true"
     inkscape:snap-text-baseline="true"
     units="px"
     fit-margin-top="0"
     fit-margin-left="0"
     fit-margin-right="0"
     fit-margin-bottom="0">
    <inkscape:grid
       type="xygrid"
       id="grid3378"
       originx="-146.22284"
       originy="-481.56876" />
  </sodipodi:namedview>
  <metadata
     id="metadata7">
    <rdf:RDF>
      <cc:Work
         rdf:about="">
        <dc:format>image/svg+xml</dc:format>
        <dc:type
           rdf:resource="http://purl.org/dc/dcmitype/StillImage" />
        <dc:title />
      </cc:Work>
    </rdf:RDF>
  </metadata>
  <g
     inkscape:label="Layer 1"
     inkscape:groupmode="layer"
     id="layer1"
     transform="translate(-146.22284,-502.22007)">
    <g
       id="g4152"
       inkscape:export-xdpi="90"
       inkscape:export-ydpi="90">
      <g
         style="font-style:normal;font-weight:normal;font-size:40px;line-height:125%;font-family:sans-serif;letter-spacing:0px;word-spacing:0px;fill:#000000;fill-opacity:1;stroke:none;stroke-width:1px;stroke-linecap:butt;stroke-linejoin:miter;stroke-opacity:1"
         id="flowRoot4180" />
      <g
         transform="matrix(0.47700914,0,0,0.45367555,-17.584932,413.58965)"
         style="font-style:normal;font-weight:normal;font-size:40px;line-height:125%;font-family:sans-serif;letter-spacing:0px;word-spacing:0px;fill:#800000;fill-opacity:0.99421967;stroke:none;stroke-width:1px;stroke-linecap:butt;stroke-linejoin:miter;stroke-opacity:1"
         id="flowRoot4188">
        <path
           d="m 372.88266,246.30499 c -6.48,-4.68 -14.04,-14.04 -1.08,-17.28 l 6.12,-1.26 c 1.8,-0.54 3.78,-0.72 5.58,-0.9 6.3,-0.18 12.06,0.72 17.82,1.44 2.88,0.36 5.76,0.9 8.46,1.98 0.72,0.54 1.8,0.54 2.88,0 1.98,-0.54 3.6,-1.44 5.58,-2.34 1.26,-0.72 2.16,-1.62 2.88,-2.88 0.72,-1.26 1.8,-2.34 2.52,-3.78 0.9,-1.44 1.8,-3.24 1.98,-4.5 0.18,-3.06 1.26,-6.12 2.7,-9.18 0.36,-0.9 0.36,-1.8 0.54,-2.7 0,-0.36 0,-0.9 0.18,-1.26 0.54,-1.44 0,-2.16 -0.9,-2.88 -2.34,-1.8 -5.4,-2.52 -8.64,-2.88 l -9,-1.26 c -9.9,-0.72 -20.16,-0.36 -31.14,3.6 -1.98,0.9 -4.14,1.44 -6.3,2.34 -7.2,3.96 -14.22,8.28 -19.44,14.76 -5.76,7.02 -9.54,16.38 -5.4,23.22 2.16,4.14 5.04,8.1 9,11.16 3.42,2.88 7.02,5.4 10.98,7.74 6.48,3.78 12.96,7.74 18.54,12.24 3.42,2.7 5.04,6.3 6.3,10.44 0.54,1.08 0,2.52 -1.62,3.78 -2.16,1.98 -4.68,3.42 -7.02,4.5 -3.24,1.62 -6.66,2.88 -9.9,4.32 -3.24,1.44 -6.66,2.16 -9.9,2.7 -1.8,0.36 -3.6,0.18 -5.04,-0.36 -1.26,-0.36 -1.8,-1.26 -1.62,-2.52 0.18,-1.8 0.18,-3.24 0.54,-4.86 0.36,-2.7 1.62,-4.86 3.42,-7.2 l 3.24,-4.5 c 0.54,-0.72 0.72,-1.26 0.54,-1.8 -0.18,-0.9 -0.18,-1.62 -0.18,-2.52 -0.36,0 -0.9,-0.18 -1.8,-0.36 l 2.34,-1.26 c -1.44,-0.54 -2.16,1.08 -3.24,1.44 -2.7,-0.36 -3.42,0.18 -4.86,2.88 -0.36,0.54 -0.72,1.26 -1.26,1.62 -2.88,2.52 -5.22,5.4 -7.2,8.28 -2.34,3.06 -3.96,6.12 -5.22,9.18 -1.62,5.04 -0.9,8.82 1.8,11.7 3.06,3.24 7.74,4.68 12.6,5.4 3.24,0.54 6.48,0.36 10.26,-0.54 1.62,-0.54 2.88,-0.9 4.32,-1.62 1.62,-0.9 3.06,-1.08 4.68,-1.08 1.98,0.18 4.14,0 6.12,-1.08 4.14,-1.62 7.92,-3.78 11.34,-7.02 0.9,-0.72 1.8,-1.8 2.34,-2.52 1.44,-1.62 2.52,-3.6 3.42,-5.4 3.06,-5.4 3.78,-10.62 2.7,-15.3 -1.8,-6.84 -5.22,-12.42 -10.08,-16.74 -3.42,-2.88 -6.66,-5.76 -10.8,-7.92 -0.54,-0.18 -1.08,-0.54 -1.62,-0.9 -2.7,-2.16 -5.58,-4.32 -8.46,-6.12 z"
           style="font-style:normal;font-variant:normal;font-weight:normal;font-stretch:normal;font-size:180px;line-height:125%;font-family:Selima;-inkscape-font-specification:'Selima, Normal';text-align:center;writing-mode:lr-tb;text-anchor:middle;fill:#800000;fill-opacity:0.99421967"
           id="path4174" />
        <path
           d="m 469.06453,272.04499 c -1.62,2.88 -2.52,6.84 -4.14,9.9 -1.8,3.6 -7.92,10.26 -10.62,12.96 -1.08,0.9 -6.48,5.22 -7.56,5.94 -1.62,1.08 -4.86,0.9 -6.48,0.9 -0.36,0 -0.54,-0.18 -0.72,-0.18 -0.54,-0.72 -1.26,-1.26 -1.62,-2.16 -0.9,-2.7 -1.62,-5.4 -1.8,-8.28 -0.36,-6.84 1.98,-20.52 3.96,-25.02 0.9,-1.26 0.72,-2.88 1.44,-4.14 0.9,-1.44 1.8,-3.06 2.34,-4.68 0.54,-1.98 1.26,-3.6 2.16,-5.4 l 0.9,-1.98 c 2.34,-5.94 5.22,-11.7 7.38,-17.82 l 0.36,-0.54 c 0.36,-0.72 0.72,-1.26 1.44,-1.44 l 4.14,-0.54 c 0.72,-0.18 1.62,-0.18 2.34,-0.54 1.26,-0.36 2.52,-0.54 3.78,-0.54 2.16,0.18 4.32,-0.72 6.3,-0.9 0,0 0.18,0 0.18,-0.18 l 3.96,-1.8 1.26,-0.9 0.72,-1.08 c -1.26,-0.18 -2.34,-0.54 -3.42,-0.54 l -9.36,0 -6.66,0.54 c -0.72,0 -1.26,0 -1.8,-0.36 0.18,-0.54 0.18,-0.9 0.18,-1.44 l 1.08,-4.32 0.54,-2.88 c 0.18,-0.9 0.18,-1.8 0,-2.52 -0.18,-0.9 -0.36,-1.8 -0.36,-2.88 0,-2.16 -0.36,-3.96 -1.26,-5.76 -0.72,-1.98 -1.62,-3.06 -4.14,-2.52 -0.18,0.18 -0.18,0.18 -0.36,0.18 -1.26,0 -2.34,0.54 -3.42,0.18 -0.9,-0.18 -1.62,0.18 -2.34,0.72 l -1.26,1.44 c -2.34,2.16 -4.14,4.68 -5.94,7.56 -1.98,3.24 -3.24,6.84 -5.04,10.26 -0.36,1.62 -1.26,2.88 -1.8,4.32 -0.36,0.9 -1.08,1.26 -1.8,1.44 -1.8,0.18 -3.6,0.36 -5.22,0.72 l -7.38,1.62 c -0.18,0 -0.54,0.18 -0.9,0.36 0.18,0.9 0.72,1.26 1.08,1.62 l 3.24,1.98 c 1.08,0.9 2.16,0.72 3.42,0.9 4.32,0.9 -0.36,7.74 -1.26,11.7 l -1.62,5.76 c -0.36,1.08 -0.9,2.34 -1.08,3.6 l -0.9,3.6 c -4.32,14.58 -6.12,16.74 -6.12,31.86 0.18,2.7 0.72,6.48 1.44,8.82 0.54,1.8 1.62,3.24 2.52,4.86 1.8,3.6 7.38,9.18 11.16,9.72 2.16,0.54 4.68,0.36 7.02,0.18 1.26,-0.18 6.66,-2.16 8.1,-3.06 2.16,-1.44 6.12,-6.12 8.46,-7.74 0.9,-0.72 9.36,-11.52 10.08,-12.78 l 4.86,-9.18 3.42,-8.64 c 0.36,-0.72 2.34,-5.94 2.16,-6.66 -0.18,-0.9 0.36,-0.9 0.36,-1.98 0.18,-0.54 -1.08,0.18 -1.98,0 l -3.42,7.74 z m -18,-49.5 c -1.08,3.24 -6.12,3.06 -5.4,-1.62 0.54,-1.98 0.9,-3.96 1.26,-5.76 l 1.08,-2.34 0.72,-1.62 c 0.36,-1.62 1.08,-3.24 1.8,-4.68 0.36,-0.9 0.9,-1.26 1.62,-1.8 0.36,-0.36 0.9,-0.18 1.08,0.54 0.18,1.62 0.36,3.24 0.18,4.86 l -0.72,4.32 -0.54,2.52 -1.08,5.58 z m -8.1,23.58 c -2.52,6.66 -8.28,17.82 -4.32,2.88 1.62,-5.58 2.34,-9.72 4.32,-15.66 5.94,-3.78 5.4,-0.18 3.6,4.32 -1.62,3.24 -2.34,5.04 -3.6,8.46 z"
           style="font-style:normal;font-variant:normal;font-weight:normal;font-stretch:normal;font-size:180px;line-height:125%;font-family:Selima;-inkscape-font-specification:'Selima, Normal';text-align:center;writing-mode:lr-tb;text-anchor:middle;fill:#800000;fill-opacity:0.99421967"
           id="path4176" />
        <path
           d="m 500.42953,277.62499 c -1.62,6.12 -0.72,9.18 0.18,14.76 1.08,6.12 15.66,5.4 19.08,3.42 0.54,-0.36 0.9,-0.9 2.34,-0.54 0.54,-0.54 0.72,-0.72 1.98,-1.26 1.62,-0.9 1.98,-1.08 3.24,-2.34 1.62,-0.72 1.8,-1.26 3.42,-1.62 3.6,-2.88 8.28,-7.92 10.62,-10.98 0.9,-0.36 0.72,-0.9 1.08,-1.26 1.26,-1.08 2.88,-6.84 4.32,-7.92 l 1.08,-2.16 c 0.72,-1.26 -0.72,-6.66 -2.52,-3.42 -1.98,2.88 -3.06,5.04 -4.32,7.2 -3.42,5.58 -10.8,12.6 -14.94,14.4 -6.3,1.98 -12.6,0.36 -12.06,-1.98 0,-0.72 0.72,-3.96 2.16,-10.08 1.08,-1.44 0.9,-3.42 1.62,-5.04 0.72,-1.44 1.44,-3.06 1.26,-4.14 1.08,-1.62 0.72,-0.36 1.26,-1.62 1.62,-3.96 1.8,-7.56 3.06,-10.98 -0.54,-0.36 -0.18,-1.08 -0.54,-1.8 -1.62,-0.9 0.72,-1.08 -1.98,-0.9 -0.72,-0.18 -0.54,-0.36 -2.34,0.18 -1.08,1.44 -1.8,2.52 -2.34,4.14 -1.44,1.98 -3.06,4.14 -4.14,6.48 -0.9,1.98 -1.08,1.26 -2.16,3.6 -0.54,0.9 -0.9,1.98 -2.16,3.24 -1.44,1.8 -2.34,0.9 -3.78,2.88 -2.34,2.88 -8.1,3.06 -12.42,5.4 -1.08,0.36 -1.44,-2.7 -2.16,-3.6 -0.9,-0.72 0,-3.42 0.36,-4.86 0.9,-1.8 1.26,-3.42 1.62,-5.22 0.36,-1.08 0.72,-6.12 1.62,-7.38 1.08,-4.32 5.04,-12.78 6.12,-17.28 0,-0.72 0.18,-1.44 -0.36,-1.8 -0.72,-0.72 -0.72,-1.62 -1.44,-1.8 -0.9,-1.26 -2.16,-1.98 -3.96,-1.98 -1.8,0.18 0.18,1.44 -2.52,2.88 -0.9,0.9 -2.16,0.9 -3.42,1.44 -0.9,0.54 -1.8,0.9 -2.34,2.16 -1.44,2.16 -2.34,4.14 -3.24,6.12 -1.62,3.78 -11.34,18.72 -12.24,22.86 -1.08,2.88 -1.44,6.12 -0.9,7.56 0.9,5.94 1.08,7.2 5.58,9.9 1.26,0.72 5.4,1.62 7.02,1.62 1.98,-0.54 5.94,-0.36 9,-1.98 3.06,-1.98 7.74,-4.5 10.26,-7.02 l 0,0.72 z"
           style="font-style:normal;font-variant:normal;font-weight:normal;font-stretch:normal;font-size:180px;line-height:125%;font-family:Selima;-inkscape-font-specification:'Selima, Normal';text-align:center;writing-mode:lr-tb;text-anchor:middle;fill:#800000;fill-opacity:0.99421967"
           id="path4178" />
        <path
           d="m 603.81141,308.22499 c -0.18,0.18 -0.36,0.72 -0.36,0.9 -1.08,-0.18 -1.8,-0.9 -2.7,-1.44 0.36,-0.54 0.9,-0.36 1.44,-0.54 -1.98,-1.8 -3.78,-3.42 -5.04,-5.94 -0.54,-0.54 -1.08,-1.26 -0.9,-2.34 0.18,-0.36 -0.18,-1.08 -0.54,-1.62 -0.18,-0.72 -0.36,-1.26 -1.08,-1.8 -0.72,-2.34 -1.44,-4.68 -1.62,-7.2 -0.18,-1.08 0.18,-2.16 -0.36,-3.24 -0.18,-0.18 -0.18,-0.36 -0.18,-0.72 l 0,-4.68 c 0.18,-1.08 0.36,-2.34 0,-3.6 -0.18,-0.9 0,-1.8 0,-2.7 0.36,-0.36 0.54,-0.9 0.36,-1.26 0,-1.26 0.36,-2.34 0.18,-3.42 0.54,-1.62 0.9,-2.88 1.08,-4.32 0.18,-1.44 0.54,-3.06 0.9,-4.5 0.18,-0.72 0.36,-1.44 1.08,-1.98 0.9,-1.8 0,-2.34 1.44,-4.14 1.62,-1.98 3.42,-4.14 4.14,-6.66 0.54,-1.08 1.44,-1.98 2.34,-2.88 1.08,-0.72 2.16,-1.8 2.7,-3.24 0.54,-1.8 1.44,-3.42 2.88,-4.86 0.9,-1.26 1.62,-2.88 2.16,-4.5 0.18,-1.08 0.54,-1.98 0.9,-3.06 0.72,-1.44 1.26,-2.88 1.8,-4.32 0.72,-1.62 1.44,-3.06 2.34,-4.32 0.54,-0.9 0.9,-1.98 1.08,-3.06 0.18,-0.36 0,-0.72 0.18,-1.08 0.9,-1.44 0.9,-3.06 0.9,-4.5 l 0.54,-3.96 c 0.36,-1.98 0,-3.96 -0.18,-5.94 -0.18,-0.54 -0.36,-1.08 -0.72,-1.44 -1.8,-1.08 -2.88,-2.52 -4.5,-3.42 -2.34,-1.26 -4.86,-1.62 -7.02,0 -1.44,1.08 -2.88,1.98 -4.5,2.88 -0.72,0.54 -1.62,1.08 -2.16,1.62 -1.44,1.44 -3.06,2.88 -4.68,4.14 -1.62,1.62 -2.88,3.6 -4.14,5.58 -1.26,2.7 -2.7,5.4 -4.14,7.92 -0.36,1.08 -0.54,1.98 -1.08,2.88 -0.54,1.62 -1.26,3.24 -1.98,4.86 -0.36,1.26 -0.72,2.52 -1.26,3.6 l -0.9,2.34 c -2.7,5.04 -1.44,19.26 -7.92,10.44 l -3.06,-1.26 c -0.54,-0.18 -0.9,-0.36 -1.44,-0.36 -1.08,0.18 -2.34,0.18 -3.24,0.72 -5.04,1.62 -9.54,4.32 -12.96,8.1 -3.42,3.42 -5.94,7.56 -8.28,11.52 -2.16,3.78 -3.06,8.1 -4.14,12.42 -0.54,2.16 -0.54,4.68 -0.54,7.02 -0.18,0.54 0,1.26 0,1.98 0.18,0.72 0.36,1.26 0.36,1.98 -0.18,2.16 0.36,4.32 1.44,6.3 1.44,3.24 3.6,5.76 6.84,7.38 2.16,1.26 4.68,1.98 6.84,2.52 1.62,0.36 3.6,0 4.68,-1.08 0.72,-0.72 1.44,-0.9 2.34,-1.26 3.06,-0.9 4.86,-3.06 5.58,-6.3 0.36,-1.44 0.9,-2.7 1.8,-3.78 l 1.08,-1.08 c 0,0.36 0.36,0.54 0.54,0.9 -0.18,0.9 0,1.98 0.18,2.88 0.18,1.8 0.54,3.42 0.9,5.04 0.18,1.44 0.9,2.88 0.72,4.14 0,1.08 0,1.62 0.72,2.52 0.36,0.18 0.36,0.54 0.54,0.9 0.36,2.34 1.62,4.32 2.52,6.3 1.62,2.7 3.42,5.4 6.12,7.38 3.06,3.6 3.24,2.88 6.84,4.32 1.8,0.72 3.24,0.9 4.86,0.9 0.36,-0.36 0.54,-0.9 0.72,-1.08 2.16,-0.9 3.78,-2.16 5.94,-3.24 1.26,-0.9 2.88,-1.8 3.78,-2.88 1.44,-0.9 2.52,-2.16 3.6,-3.42 l 2.16,-3.06 c 0.9,-1.44 1.62,-2.88 2.16,-4.5 0.18,-0.72 0.54,-1.44 1.08,-1.98 l 2.52,-3.42 c 0,-0.18 0.18,-0.36 0.54,-0.54 0.54,-2.7 0.18,-3.06 3.42,-7.38 l 1.62,-1.98 c -2.34,-2.34 -0.72,0.18 0,-2.7 1.62,-3.6 3.96,-4.5 6.3,-8.1 2.88,0.9 0.9,-3.24 2.52,-4.32 0.72,-0.9 1.44,-1.98 0.36,-3.42 -0.36,0.36 3.06,-2.88 1.8,-2.88 0,-3.24 2.88,-2.34 0.72,-3.96 -3.42,-2.52 -2.7,0.18 -4.86,3.96 -3.6,6.12 -6.48,12.42 -10.8,18.36 -3.24,6.3 -3.06,8.64 -4.86,11.34 -0.9,1.26 -1.62,2.52 -2.34,3.96 -1.98,3.06 0.72,0.36 -1.44,3.24 -0.36,0.54 -0.9,0.9 -1.26,1.26 -1.8,0.72 -1.98,1.62 -5.58,2.16 l 0.18,0 z m -2.88,-64.44 c -7.56,7.92 -3.42,-3.78 -2.16,-9.72 0.54,-4.32 2.7,-7.74 3.78,-12.06 0.18,-1.26 0.72,-2.52 1.26,-3.78 0.36,-1.08 0.54,-1.98 0.36,-3.06 0,-0.9 0.36,-1.44 1.26,-1.98 0.9,-0.9 1.8,-1.98 2.34,-3.42 0.72,-1.08 1.26,-2.16 1.08,-3.42 0,-0.54 0.36,-1.08 0.54,-1.62 0.9,-1.26 2.16,-2.52 2.7,-4.14 0.18,-0.54 0.72,-0.72 1.08,-1.08 1.26,-0.72 1.98,-0.54 2.7,1.08 0.18,1.08 0.36,2.16 0.36,3.24 -0.18,4.68 -0.36,9.36 -2.16,13.5 -0.36,0.72 -0.36,1.62 -0.36,2.34 0,1.08 -0.18,1.8 -0.54,2.7 -1.62,3.06 -3.06,5.94 -4.32,9 -1.26,2.34 -2.88,4.32 -4.32,6.3 -1.44,1.98 -2.34,3.96 -3.6,6.12 z m -34.38,25.2 c 5.58,-9.36 8.1,-5.4 5.04,4.68 -0.18,1.26 -0.18,2.52 0,3.78 l -0.36,3.6 c 0,0.36 -0.18,0.72 -0.18,1.08 -0.72,1.44 -1.62,2.7 -2.7,3.78 -1.62,1.8 -3.42,3.6 -4.86,5.4 -0.9,0.9 -1.8,1.98 -3.24,2.52 -0.18,-0.18 -0.54,-0.36 -0.54,-0.72 -1.8,-3.42 -1.44,-6.84 -0.72,-10.08 l 2.52,-5.04 0.9,-1.62 c 1.44,-2.7 2.16,-5.22 4.14,-7.38 z m 18,44.46 c -0.36,0 -0.72,0.18 -0.54,0.18 l 6.66,5.04 c 0.54,0.36 0.72,0.72 1.26,1.26 -0.72,0 -1.26,0 -1.44,-0.18 -3.06,-0.9 -5.04,-2.7 -7.02,-5.04 l -0.72,-1.44 c 0,0 -0.18,-0.18 -0.18,-0.36 -0.36,-0.18 -0.54,-0.36 -0.54,-0.54 l 0.36,-0.18 0.54,0.54 c 0,0.18 -0.18,0.54 0,0.72 l 1.62,0 z m 14.22,-5.4 c -0.54,-0.36 -1.08,-0.54 -1.08,-1.08 -1.44,-1.62 -2.52,-3.42 -3.96,-5.22 0.72,-0.36 0.72,0 0.9,0.18 1.26,1.26 2.16,2.52 2.7,3.96 0.54,0.54 1.26,1.08 1.44,1.44 l 0,0.72 z m -3.42,-9.72 c -0.36,0 -0.36,-0.36 -0.36,-0.54 -1.08,-1.8 -2.16,-3.78 -2.7,-6.12 1.26,1.08 1.26,2.16 1.8,3.24 0.54,1.26 0.9,2.16 1.26,3.42 z m 4.86,8.1 c 0.54,0.36 0.36,0.9 0.54,1.26 -0.36,-0.54 -0.54,-0.72 -1.26,-1.26 0.54,-0.36 0.72,-0.18 0.72,0 z m -7.92,-2.7 c 0,-0.18 0,-0.18 -0.18,-0.36 l 0.18,-0.18 c 0,0.18 0.36,0.36 0.36,0.54 l -0.36,0 z m 3.42,-4.86 -0.36,0 c 0.18,-0.18 0.18,-0.36 0,-0.54 l 0.36,0.54 z m -4.5,1.98 c -0.18,0 -0.18,0 -0.54,-0.18 l 0.36,0 0.18,0.18 z m -1.98,15.66 -0.18,0 c 0,-0.18 0.18,-0.18 0.18,-0.18 l 0,0.18 z m 2.34,-14.58 0,0.18 -0.18,0 0.18,-0.18 z"
           style="font-style:normal;font-variant:normal;font-weight:normal;font-stretch:normal;font-size:180px;line-height:125%;font-family:Selima;-inkscape-font-specification:'Selima, Normal';text-align:center;writing-mode:lr-tb;text-anchor:middle;fill:#800000;fill-opacity:0.99421967"
           id="path4180" />
        <path
           d="m 639.51047,249.00499 c -0.54,1.08 -0.72,1.8 -0.54,2.52 0.36,1.26 -0.18,1.98 -0.72,3.06 0,0 -0.36,0.54 -0.36,0.9 -1.08,2.52 -4.32,6.48 -5.76,10.08 -2.16,3.6 1.62,-0.18 1.62,-0.18 -0.9,1.26 -1.08,2.34 -1.98,3.6 -0.18,0.18 -0.36,0.9 -0.54,0.9 -1.26,0.18 -0.9,1.08 -1.26,1.26 0,1.08 -0.36,1.98 -0.54,2.88 -0.72,1.44 -0.36,5.58 -0.9,7.74 0,0.9 0,2.16 0.36,3.24 0,2.34 0.9,4.86 1.8,7.2 1.62,1.8 3.42,3.24 5.22,3.96 2.7,1.08 5.04,3.6 7.56,2.7 7.92,3.06 20.16,-7.74 21.96,-10.08 6.12,-3.6 8.82,-13.5 12.6,-20.34 -2.52,-0.54 -0.54,-3.06 -1.44,-4.86 -0.54,0.9 -0.54,0.9 -0.54,1.08 -0.9,2.88 -2.88,5.04 -4.5,7.38 -8.64,9.18 -3.24,11.16 -18.18,16.56 -1.08,0.18 -1.98,0.54 -2.88,-0.18 -1.08,-0.36 -1.98,-1.08 -2.7,-1.44 -0.54,-0.72 -1.26,-1.44 -1.44,-2.7 -0.18,-1.62 0.54,-10.8 0.54,-12.6 0.18,-3.24 0.18,-2.52 1.62,-6.12 0.18,-0.36 0.54,-0.9 0.54,-1.44 0.36,-1.8 -2.88,5.04 -2.16,2.88 0.9,-1.62 1.62,-3.78 2.34,-5.4 l 0.9,-2.7 c 1.44,-2.88 2.7,-5.04 3.78,-7.38 0.54,-1.8 0.36,-3.06 -0.36,-3.96 -0.72,-0.72 -2.52,-1.62 -3.06,-2.34 -1.8,-1.08 -6.3,2.16 -8.28,2.52 -0.54,0.36 -0.9,0.54 -1.44,1.26 l -0.18,0.18 c -0.54,0.18 -0.72,0 -1.08,-0.18 z m 18.72,-20.88 c -0.72,-1.26 -1.62,-2.16 -2.88,-2.7 -0.72,-0.18 -1.62,-0.36 -2.34,-0.72 -0.18,-0.18 -0.36,0 -0.72,0.18 -0.36,0.18 -0.72,0.18 -0.72,-0.18 -0.18,-0.18 -0.54,-0.18 -0.9,0 -0.36,0 -0.72,0.36 -1.08,0.72 l -1.08,1.62 c -0.54,1.08 -1.44,1.98 -1.44,3.06 0,0.18 -0.54,0.54 -0.54,0.9 -0.54,0.9 -0.9,1.44 -1.26,2.34 -0.18,0.72 -0.54,1.26 -0.54,1.8 l -0.54,0.72 c 0.72,0.18 1.26,0.18 1.98,0.18 0.54,0 0.9,0 1.44,0.36 0.72,0.36 1.44,0.54 2.52,-0.18 0.36,-0.36 0.9,-0.72 1.26,-0.54 0.9,-0.18 2.34,-0.9 2.7,-1.44 l 1.8,-2.16 c 0.36,-0.36 0.36,-0.72 0.36,-0.9 0.18,-0.72 0.54,-1.08 0.9,-1.62 0.36,-0.36 0.54,-0.9 1.08,-1.44 z"
           style="font-style:normal;font-variant:normal;font-weight:normal;font-stretch:normal;font-size:180px;line-height:125%;font-family:Selima;-inkscape-font-specification:'Selima, Normal';text-align:center;writing-mode:lr-tb;text-anchor:middle;fill:#800000;fill-opacity:0.99421967"
           id="path4182" />
        <path
           d="m 680.21578,259.80499 c -0.18,0.54 -0.18,0.9 -0.72,1.08 -2.7,3.24 -5.04,6.66 -6.66,10.62 -1.62,3.24 -2.7,6.48 -3.06,9.9 -0.36,3.42 -0.18,6.66 0.18,9.9 l 1.62,4.86 c 1.8,3.06 3.96,5.4 7.2,5.76 2.34,0.36 4.86,0.54 7.38,-0.18 0.54,-0.36 1.44,-0.72 1.8,-0.72 1.98,-0.54 3.6,-1.8 5.04,-3.42 0.18,-0.54 0.72,-0.9 1.08,-1.08 l 1.26,-0.9 c 1.08,-0.72 1.8,-1.98 2.52,-3.06 1.26,-1.62 2.52,-3.24 3.42,-5.4 1.26,-3.06 2.88,-5.94 3.42,-9 0.18,-0.36 0.36,-0.54 0.36,-0.9 0,-0.36 0.54,-0.54 1.08,-0.54 l 0.54,0 c 6.48,0 23.04,0.18 28.44,-5.58 0.72,-0.72 -1.08,-1.08 -0.54,-1.98 0.18,-0.36 0.36,-1.08 0,-1.62 l -1.26,0.72 -2.88,1.44 c -8.64,1.44 -12.06,0.18 -20.88,0.72 -1.44,0 -2.52,-1.26 -1.98,-2.34 0.54,-1.98 0,-3.96 0.18,-6.12 0,-0.18 -0.18,-1.62 -0.18,-2.34 -0.36,-1.44 -0.36,-2.7 -0.54,-4.32 -0.36,-1.8 -0.54,-3.6 -1.08,-5.22 -0.72,-1.26 -1.08,-2.52 -1.62,-3.96 -0.9,-2.34 -1.98,-3.96 -3.6,-5.4 -1.26,-0.72 -2.34,-1.8 -3.42,-2.7 -0.9,-0.72 -4.86,-4.32 -6.3,-4.32 -1.98,-0.36 -4.14,-0.18 -5.76,0.9 -2.16,1.26 -3.96,2.34 -5.4,3.6 -0.72,0.18 -1.08,0.54 -1.26,0.9 -1.62,2.88 -2.52,5.76 -1.98,8.82 0.54,4.14 1.44,8.1 3.42,11.34 0.18,0.18 0.18,0.36 0.18,0.54 z m 21.42,-3.42 c 2.16,12.06 -7.38,15.66 -12.6,5.4 -4.5,-4.86 -9.18,-14.22 -4.32,-21.06 1.26,-1.26 5.22,-5.04 7.38,-3.24 1.26,0.72 2.16,1.44 3.24,2.34 1.08,0.54 1.62,1.44 2.34,2.16 1.26,1.08 1.98,2.52 2.52,4.32 0.54,1.98 0.9,3.6 1.26,5.76 0.54,1.26 0.54,2.88 0.18,4.32 z m -12.78,23.04 c 2.34,-3.06 4.32,-4.68 8.46,-2.88 -0.54,1.26 -0.9,2.88 -1.8,4.32 -1.8,4.14 -3.96,8.28 -7.02,11.52 l -0.72,0.54 c -0.18,0.18 -0.18,0.18 -0.36,0.18 -0.9,-0.36 -1.62,-1.26 -1.98,-2.16 -0.18,-0.36 -0.54,-0.54 -0.18,-0.9 0,-0.9 0,-1.98 0.18,-2.88 1.08,-3.24 1.44,-4.86 3.42,-7.74 z m 18.72,-19.8 0,0.18 c -0.18,-0.72 -0.18,-0.54 0,-0.18 z m 0.18,0.36 c 0,0 -0.18,0 -0.18,-0.18 0,0.18 0.18,0.18 0.18,0.18 z"
           style="font-style:normal;font-variant:normal;font-weight:normal;font-stretch:normal;font-size:180px;line-height:125%;font-family:Selima;-inkscape-font-specification:'Selima, Normal';text-align:center;writing-mode:lr-tb;text-anchor:middle;fill:#800000;fill-opacity:0.99421967"
           id="path4184" />
      </g>
      <g
         style="font-style:normal;font-weight:normal;font-size:40px;line-height:125%;font-family:sans-serif;letter-spacing:0px;word-spacing:0px;fill:#000000;fill-opacity:1;stroke:none;stroke-width:1px;stroke-linecap:butt;stroke-linejoin:miter;stroke-opacity:1"
         id="flowRoot4227" />
      <g
         transform="matrix(0.52165611,0,0,0.51964837,46.698749,240.5142)"
         inkscape:export-ydpi="90"
         inkscape:export-xdpi="90"
         id="text4235"
         style="font-style:normal;font-weight:normal;font-size:40px;line-height:125%;font-family:sans-serif;letter-spacing:0px;word-spacing:0px;fill:#800000;fill-opacity:1;stroke:none;stroke-width:1px;stroke-linecap:butt;stroke-linejoin:miter;stroke-opacity:1">
        <path
           inkscape:connector-curvature="0"
           id="path4264"
           style="font-style:normal;font-variant:normal;font-weight:normal;font-stretch:normal;font-size:180px;line-height:125%;font-family:Selima;-inkscape-font-specification:'Selima, Normal';text-align:start;writing-mode:lr-tb;text-anchor:start;fill:#800000;fill-opacity:1"
           d="m 580.88,547.56218 c 10.8,3.6 -9.72,11.88 -14.4,16.02 -5.04,4.14 -8.64,9.54 -10.8,16.02 -2.52,7.38 -2.34,14.58 1.62,21.24 0.36,0.72 1.08,1.62 1.44,2.88 2.7,3.96 6.48,6.84 10.98,8.46 3.6,1.26 7.56,1.62 11.52,1.26 0.9,-0.36 1.8,-0.54 2.7,-0.18 0.9,0.54 1.98,-0.54 2.88,-0.36 2.34,-0.36 4.5,-0.36 6.84,-0.72 2.16,0 4.32,-0.54 6.84,-0.9 1.98,-0.18 3.78,-0.36 5.76,-0.9 3.42,-0.9 7.2,-2.88 10.44,-4.68 2.16,-1.08 3.78,-2.7 5.4,-4.5 0.72,-0.54 1.44,-0.9 2.34,-1.08 -0.54,-2.52 -1.62,-4.5 -2.88,-6.12 -0.72,-1.44 -1.08,-1.44 -2.52,-0.36 -2.7,1.62 -5.94,2.7 -9,3.24 l -10.8,1.08 c -5.04,0.9 -10.44,1.26 -15.48,1.98 -3.96,0.18 -7.74,0.18 -11.7,-0.36 -1.98,-0.36 -3.96,-0.9 -5.58,-2.34 -1.62,-1.44 -1.8,-5.94 -1.26,-7.74 4.14,-12.78 29.34,-29.7 39.06,-34.2 1.44,-0.72 2.88,-1.62 3.96,-2.88 1.26,-1.62 2.52,-2.88 4.32,-3.78 l 0,-0.36 c -0.36,-1.44 -0.9,-1.98 -1.98,-2.34 -2.34,-0.54 -4.68,-0.72 -6.84,-0.18 -4.32,0.54 -8.64,0.36 -12.78,-0.18 -28.08,-1.62 21.06,-17.28 23.22,-12.6 2.16,0 4.32,0.18 6.66,0.72 3.42,0.72 6.48,-0.54 9.18,-3.42 1.62,-1.62 2.34,-3.6 1.98,-5.94 -0.36,-1.26 -0.72,-2.16 -0.9,-3.24 l -1.62,-6.84 c -0.54,-2.52 -1.62,-4.68 -3.6,-5.76 -1.98,-0.72 -4.14,-1.44 -6.3,-1.62 -8.46,-0.9 -16.92,0.18 -25.2,2.7 -5.22,1.8 -9.9,4.32 -14.22,8.28 -3.42,2.88 -5.4,6.66 -6.48,11.16 -1.26,5.4 0.36,10.08 3.06,14.4 1.26,1.62 2.52,3.06 4.14,4.14 z" />
        <path
           inkscape:connector-curvature="0"
           id="path4266"
           style="font-style:normal;font-variant:normal;font-weight:normal;font-stretch:normal;font-size:180px;line-height:125%;font-family:Selima;-inkscape-font-specification:'Selima, Normal';text-align:start;writing-mode:lr-tb;text-anchor:start;fill:#800000;fill-opacity:1"
           d="m 674.9975,566.82218 c 3.96,-4.14 3.24,4.5 2.52,8.28 0,2.34 -0.18,4.5 -0.36,6.84 0.18,10.26 3.96,16.56 11.7,19.08 3.06,1.08 12.6,0.72 15.12,-0.36 l 2.16,-0.72 c 0.9,-0.54 1.98,-0.9 2.7,-1.62 1.62,-1.44 8.64,-9.18 10.08,-10.8 1.62,-1.8 3.42,-5.58 5.04,-7.92 0.54,-0.9 0.9,-1.8 1.08,-2.7 0,-0.9 0.18,-1.62 0.72,-2.34 0.54,-1.26 0.36,0.18 0.36,-1.08 -0.18,-1.08 0.18,-1.8 0,-2.88 -0.18,-0.18 -0.18,-0.54 -0.18,-0.9 -0.72,0.72 -0.72,1.08 -1.08,1.62 -1.44,1.98 -1.44,3.24 -2.88,5.4 -0.72,0.9 -6.3,5.04 -6.84,5.76 -2.52,3.24 -10.08,9.18 -13.5,11.34 -1.08,0.36 -1.8,0.9 -2.7,1.26 -1.8,0.9 -7.74,2.16 -8.1,-2.16 -0.36,-3.24 0,-11.16 1.08,-14.94 0.9,-3.42 1.26,-5.4 1.98,-8.82 0.72,-2.7 0.36,-4.68 0,-7.38 0,-1.08 -0.18,-1.8 -0.72,-2.7 -0.72,-1.26 -1.62,-2.34 -3.24,-2.7 -2.16,-0.36 -4.32,-0.18 -6.66,-0.54 l -1.8,0 c -1.62,0.36 -2.88,1.08 -3.78,2.7 l -3.42,3.6 c -3.96,4.32 -5.94,5.58 -10.08,10.62 -3.42,3.96 -3.78,4.5 -7.38,7.92 -2.34,1.26 -3.96,-1.08 -1.62,-4.86 1.98,-2.88 1.26,-2.34 2.7,-5.4 3.24,-6.84 5.4,-13.5 5.58,-20.16 0.18,-1.98 0.18,-3.78 -0.72,-5.22 l -2.7,-3.6 c -0.18,-0.36 -0.72,-0.9 -0.9,-0.9 -1.98,-0.54 -3.6,-1.62 -4.86,-3.24 -0.36,-0.54 -1.26,-0.72 -2.16,-0.18 0,0.54 -0.18,0.72 -0.18,1.26 -0.36,1.62 -1.08,3.24 -1.98,4.86 -0.9,2.16 -2.16,4.32 -3.42,6.48 -1.98,3.42 -4.32,7.2 -6.3,10.98 -2.16,4.5 -4.14,9 -5.94,13.5 -1.62,3.24 -2.88,6.48 -4.14,9.9 -2.52,6.66 -3.96,13.32 -5.4,19.8 -0.72,3.78 0.9,6.66 3.6,7.56 1.08,0.18 2.34,0.18 3.6,0.54 1.98,0.18 3.96,0 5.94,0.54 0.54,0.18 1.98,0.18 2.88,-0.54 1.08,-0.54 1.8,-0.9 2.52,-0.9 0.9,0 1.44,-0.18 2.34,-1.08 1.44,-1.8 4.14,-13.32 5.94,-15.12 0.18,-0.54 0.72,-1.26 1.44,-1.8 0.9,-0.9 1.62,-2.16 2.52,-3.6 0.9,-1.62 1.8,-2.88 3.06,-4.14 1.98,-1.98 3.96,-4.14 5.58,-6.3 1.98,-2.88 5.04,-5.58 7.38,-8.28 1.08,-1.26 2.52,-2.52 3.42,-3.96 z" />
        <path
           inkscape:connector-curvature="0"
           id="path4268"
           style="font-style:normal;font-variant:normal;font-weight:normal;font-stretch:normal;font-size:180px;line-height:125%;font-family:Selima;-inkscape-font-specification:'Selima, Normal';text-align:start;writing-mode:lr-tb;text-anchor:start;fill:#800000;fill-opacity:1"
           d="m 731.75656,555.48218 c -0.54,1.08 -0.72,1.8 -0.54,2.52 0.36,1.26 -0.18,1.98 -0.72,3.06 0,0 -0.36,0.54 -0.36,0.9 -1.08,2.52 -4.32,6.48 -5.76,10.08 -2.16,3.6 1.62,-0.18 1.62,-0.18 -0.9,1.26 -1.08,2.34 -1.98,3.6 -0.18,0.18 -0.36,0.9 -0.54,0.9 -1.26,0.18 -0.9,1.08 -1.26,1.26 0,1.08 -0.36,1.98 -0.54,2.88 -0.72,1.44 -0.36,5.58 -0.9,7.74 0,0.9 0,2.16 0.36,3.24 0,2.34 0.9,4.86 1.8,7.2 1.62,1.8 3.42,3.24 5.22,3.96 2.7,1.08 5.04,3.6 7.56,2.7 7.92,3.06 20.16,-7.74 21.96,-10.08 6.12,-3.6 8.82,-13.5 12.6,-20.34 -2.52,-0.54 -0.54,-3.06 -1.44,-4.86 -0.54,0.9 -0.54,0.9 -0.54,1.08 -0.9,2.88 -2.88,5.04 -4.5,7.38 -8.64,9.18 -3.24,11.16 -18.18,16.56 -1.08,0.18 -1.98,0.54 -2.88,-0.18 -1.08,-0.36 -1.98,-1.08 -2.7,-1.44 -0.54,-0.72 -1.26,-1.44 -1.44,-2.7 -0.18,-1.62 0.54,-10.8 0.54,-12.6 0.18,-3.24 0.18,-2.52 1.62,-6.12 0.18,-0.36 0.54,-0.9 0.54,-1.44 0.36,-1.8 -2.88,5.04 -2.16,2.88 0.9,-1.62 1.62,-3.78 2.34,-5.4 l 0.9,-2.7 c 1.44,-2.88 2.7,-5.04 3.78,-7.38 0.54,-1.8 0.36,-3.06 -0.36,-3.96 -0.72,-0.72 -2.52,-1.62 -3.06,-2.34 -1.8,-1.08 -6.3,2.16 -8.28,2.52 -0.54,0.36 -0.9,0.54 -1.44,1.26 l -0.18,0.18 c -0.54,0.18 -0.72,0 -1.08,-0.18 z m 18.72,-20.88 c -0.72,-1.26 -1.62,-2.16 -2.88,-2.7 -0.72,-0.18 -1.62,-0.36 -2.34,-0.72 -0.18,-0.18 -0.36,0 -0.72,0.18 -0.36,0.18 -0.72,0.18 -0.72,-0.18 -0.18,-0.18 -0.54,-0.18 -0.9,0 -0.36,0 -0.72,0.36 -1.08,0.72 l -1.08,1.62 c -0.54,1.08 -1.44,1.98 -1.44,3.06 0,0.18 -0.54,0.54 -0.54,0.9 -0.54,0.9 -0.9,1.44 -1.26,2.34 -0.18,0.72 -0.54,1.26 -0.54,1.8 l -0.54,0.72 c 0.72,0.18 1.26,0.18 1.98,0.18 0.54,0 0.9,0 1.44,0.36 0.72,0.36 1.44,0.54 2.52,-0.18 0.36,-0.36 0.9,-0.72 1.26,-0.54 0.9,-0.18 2.34,-0.9 2.7,-1.44 l 1.8,-2.16 c 0.36,-0.36 0.36,-0.72 0.36,-0.9 0.18,-0.72 0.54,-1.08 0.9,-1.62 0.36,-0.36 0.54,-0.9 1.08,-1.44 z" />
        <path
           inkscape:connector-curvature="0"
           id="path4270"
           style="font-style:normal;font-variant:normal;font-weight:normal;font-stretch:normal;font-size:180px;line-height:125%;font-family:Selima;-inkscape-font-specification:'Selima, Normal';text-align:start;writing-mode:lr-tb;text-anchor:start;fill:#800000;fill-opacity:1"
           d="m 770.84187,635.04218 c 1.08,-0.18 2.34,-0.72 3.42001,-1.98 0,-0.18 0.17999,-0.18 0.36,-0.36 1.07999,-0.54 2.69999,-1.08 3.41999,-2.16 l 1.44,-1.8 c 1.44,-1.44 6.30001,-6.48 7.2,-8.46 0.54,-1.26 1.44001,-2.34 2.16,-3.42 l 0.54001,-0.36 c 0.36,-0.18 0.71999,-0.54 0.9,-0.9 0.36,-1.08 0,-3.06 0.72,-4.14 0,0 -0.18001,-0.18 0.17999,-0.72 -0.17999,-0.54 0.18001,-0.9 0,-1.44 1.08001,-4.32 1.08001,-3.6 0.36,-7.2 0,-4.86 5.4,-4.86 9,-7.56 l 1.98001,-1.62 c 1.98,-1.44 3.77999,-3.24 5.76,-4.32 l 0.72,-0.72 3.78,-3.24 2.34,-2.16 c 0.9,-1.08 1.43999,-2.52 2.33999,-3.6 0.72,-1.08 1.26,-2.16 1.62,-3.42 0,-0.54 0.36,-0.9 0.54001,-1.44 0.71999,-1.08 0.53999,-2.16 0.17999,-3.24 l -0.72,-1.8 -2.69999,3.06 c -1.08001,1.26 -2.16001,2.52 -3.42001,3.6 -1.8,1.62 -3.78,3.24 -5.76,4.68 -2.69999,2.16 -5.4,4.14 -8.1,6.12 -4.68,1.26 -10.44,6.12 -12.06,2.16 -0.72,-0.72 -0.72,-2.7 -1.62,-3.42 -1.98,-1.98 -3.96,-8.82 -6.29999,-10.8 -0.54001,-0.54 -1.44001,-1.44 -1.80001,-2.34 -0.53999,-1.44 -0.53999,-4.68 0.18001,-6.48 l 1.43999,-2.88 c 0.18001,-0.18 0.18001,-0.54 0.18001,-0.54 -0.18001,-0.9 0.53999,-1.44 0.71999,-1.98 0.36,-0.72 0.90001,-1.44 1.44001,-1.8 0.72,-0.18 0.89999,-0.72 1.25999,-1.44 0.72001,-1.44 1.08001,-3.24 1.44,-4.68 0.36,-1.08 0.36,-2.16 0.36,-3.24 -0.36,-0.36 -0.36,-0.9 -0.36,-1.44 -0.18,-2.34 -3.06,-9 -4.68,-9.72 -0.17999,-0.18 -0.36,-0.18 -0.36,-0.18 -1.07999,-1.08 -1.98,-1.62 -3.24,-2.16 -0.36,-0.36 -0.72,0 -1.26,0.72 -0.36,0.72 -0.53999,0.9 -1.07999,1.26 -0.36,0.18 -0.54001,0.18 -0.72,0.54 -0.72001,1.26 -1.80001,2.34 -2.52,3.78 l -1.62,3.24 c -0.54001,0.54 -0.72,1.08 -1.08001,1.62 -0.36,1.08 -0.72,1.62 -1.08,2.52 -0.54,0.9 -0.71999,2.16 -1.26,3.06 0.54001,0.9 0,1.98 -0.17999,2.52 -0.72001,1.08 -1.08001,2.16 -0.9,3.24 -0.36,0.72 -0.18001,1.08 -0.54001,1.44 0,3.24 3.42001,16.38 5.04001,18.72 0.17999,0.72 0.71999,1.26 0.9,1.98 1.79999,3.24 3.6,6.3 4.67999,10.44 2.16001,5.4 3.24,7.2 -3.6,13.5 -3.42,3.06 -6.47999,6.66 -9.35999,10.8 -1.44001,2.16 -2.52001,4.14 -3.06001,6.48 -0.36,0.9 -0.53999,2.16 -0.53999,2.88 0.36,1.98 0.53999,3.78 1.62,5.22 0.72,0.72 0.89999,1.8 1.26,2.88 0.72,1.44 1.43999,1.8 2.88,0.9 0.36,0 0.72,-0.18 0.89999,-0.54 0.54,0 0.9,-0.36 1.44001,-0.36 l -0.36,0.9 c 0.89999,0.36 0.89999,0.36 1.26,0.18 1.07999,-0.36 1.98,-0.54 2.88,-1.26 0.17999,-0.54 0.72,-0.54 1.07999,-0.9 0.18,0.36 0.18,0.36 0.54001,0.54 l 0,0.54 c 1.62,-1.08 1.62,-1.08 2.34,-1.08 -1.08,1.44 -2.16001,2.7 -3.24,4.32 l 0.71999,-0.54 z m -2.69999,-19.8 c 2.15999,-2.16 8.64,-10.44 8.64,-4.68 0,0.18 0,0.54 -0.18001,0.54 -0.71999,1.8 -0.54,3.6 -1.44,5.22 -0.53999,1.62 -1.25999,3.24 -2.15999,4.68 -0.18001,0.36 -0.36,0.9 -0.72,1.26 -1.08001,2.16 -2.34001,3.6 -3.96001,4.86 l -2.16,2.34 -2.15999,1.8 c -0.72,0.72 -1.44001,0.54 -1.98,0.18 l -2.16,-2.52 c -0.54001,-0.54 -0.72,-1.26 -0.36,-2.34 0.36,-0.9 0.36,-1.8 0.53999,-2.88 0.36001,-0.9 1.08001,-1.62 1.8,-2.34 0.72,-0.54 1.26,-1.26 1.80001,-2.34 0.53999,-1.26 1.62,-2.34 2.69999,-2.7 0.72,-0.18 1.26,-0.54 1.80001,-1.08 z" />
        <path
           inkscape:connector-curvature="0"
           id="path4272"
           style="font-style:normal;font-variant:normal;font-weight:normal;font-stretch:normal;font-size:180px;line-height:125%;font-family:Selima;-inkscape-font-specification:'Selima, Normal';text-align:start;writing-mode:lr-tb;text-anchor:start;fill:#800000;fill-opacity:1"
           d="m 880.18906,570.42218 c -2.34,2.34 -5.94,8.28 -8.28,10.62 l -2.88,2.52 -3.96,2.34 c -1.08,0.72 -2.34,1.26 -3.42,1.8 -1.26,0.54 -2.52,0.72 -3.78,0.9 -0.72,0 -1.26,-0.36 -1.62,-0.9 -0.72,-1.44 -1.26,-3.06 -1.62,-4.5 -0.18,-1.26 0,-2.52 0.54,-3.78 l 2.52,-5.04 c 0.18,-0.36 0.36,-0.54 0.36,-0.9 -0.18,-1.8 -0.36,-3.6 -1.62,-5.22 l -1.08,-1.08 c -1.08,-1.26 -2.34,-1.44 -3.96,-1.26 l -3.78,6.12 c -0.9,1.44 -1.98,2.7 -3.06,3.96 l -1.44,1.62 c -0.72,1.26 -1.62,2.16 -2.7,3.06 -2.16,1.62 -4.14,3.42 -5.94,5.22 l -0.72,0.54 c 0,-0.36 -0.18,-0.54 0,-0.72 0.36,-1.98 1.08,-3.96 2.16,-5.94 0.18,-0.36 0.36,-0.72 0.72,-1.08 l 1.8,-2.52 c 1.44,-1.98 2.7,-3.96 4.32,-5.76 l 2.16,-2.34 c 1.62,-2.34 3.96,-4.14 5.94,-6.12 l 0,-0.18 c 1.44,-1.08 2.88,-2.16 4.5,-2.88 1.62,-0.9 1.98,-1.98 1.62,-3.6 l -0.54,-1.44 c -0.72,-1.26 -1.98,-2.16 -3.06,-3.24 -0.18,-0.18 -0.54,-0.36 -0.9,-0.36 -0.9,0 -1.62,-0.9 -2.52,-0.9 0,0 -0.18,0 -0.36,-0.18 -0.36,-0.72 -1.08,-0.72 -1.98,-0.9 -0.36,0 -0.72,-0.18 -1.08,-0.36 -1.26,-0.36 -2.7,-0.36 -3.78,-0.9 l -0.54,0 c -1.26,0 -2.34,0.18 -3.42,0.36 -0.54,0 -1.26,0.18 -1.62,0.36 -2.7,1.62 -4.86,3.42 -6.84,5.58 -2.7,3.24 -5.58,6.66 -7.92,10.26 -0.18,0.18 -0.36,0.36 -0.36,0.54 -1.8,1.98 -3.06,4.32 -4.32,6.66 -1.26,2.52 -1.8,5.22 -1.44,8.1 0.54,5.58 3.42,9.54 8.64,11.7 0.9,0.36 1.8,0.72 2.7,1.26 2.34,1.26 4.86,1.26 7.38,0.54 1.44,-0.54 2.88,-0.72 3.96,-2.16 0,0 0.18,-0.18 0.36,-0.18 l 1.98,-1.26 c 1.08,-0.9 2.34,-1.62 3.78,-2.34 1.08,1.44 2.7,2.34 4.32,3.06 l 0.9,0.54 c 1.8,1.44 3.96,1.8 6.12,2.52 l 1.62,0 c 1.44,-0.36 2.88,-0.36 4.14,-0.9 1.44,-0.54 2.88,-0.54 4.5,-0.9 1.26,-0.36 2.34,-0.9 3.42,-1.8 1.08,-1.08 2.52,-2.16 3.6,-3.42 0.18,-0.36 0.54,-0.54 0.9,-0.72 0.9,-0.54 1.62,-1.08 2.16,-2.16 0.18,-0.54 0.72,-0.9 1.08,-1.26 l 1.98,-2.34 c 0.36,-0.18 0.54,-0.72 1.08,-0.9 0.9,-0.72 2.7,-5.04 2.88,-6.3 -0.9,-0.9 -1.8,-1.62 -3.06,-1.8 l -0.54,0.36 z" />
      </g>
    </g>
  </g>
</svg>
